<svg width="36" height="36" viewBox="0 0 36 36" fill="none" xmlns="http://www.w3.org/2000/svg">
<path d="M32.4375 4.875V31.125C32.4375 31.8212 32.1609 32.4889 31.6687 32.9812C31.1764 33.4734 30.5087 33.75 29.8125 33.75H23.25C22.5538 33.75 21.8861 33.4734 21.3938 32.9812C20.9016 32.4889 20.625 31.8212 20.625 31.125V4.875C20.625 4.17881 20.9016 3.51113 21.3938 3.01884C21.8861 2.52656 22.5538 2.25 23.25 2.25H29.8125C30.5087 2.25 31.1764 2.52656 31.6687 3.01884C32.1609 3.51113 32.4375 4.17881 32.4375 4.875ZM12.75 2.25H6.1875C5.49131 2.25 4.82363 2.52656 4.33134 3.01884C3.83906 3.51113 3.5625 4.17881 3.5625 4.875V31.125C3.5625 31.8212 3.83906 32.4889 4.33134 32.9812C4.82363 33.4734 5.49131 33.75 6.1875 33.75H12.75C13.4462 33.75 14.1139 33.4734 14.6062 32.9812C15.0984 32.4889 15.375 31.8212 15.375 31.125V4.875C15.375 4.17881 15.0984 3.51113 14.6062 3.01884C14.1139 2.52656 13.4462 2.25 12.75 2.25Z" fill="white"/>
</svg>
