<svg width="37" height="36" viewBox="0 0 37 36" fill="none" xmlns="http://www.w3.org/2000/svg">
<path d="M34.375 18C34.3761 18.4457 34.2618 18.884 34.0433 19.2724C33.8248 19.6608 33.5095 19.986 33.1281 20.2165L9.49 34.677C9.09147 34.921 8.63502 35.0542 8.16778 35.0629C7.70055 35.0715 7.23948 34.9553 6.83219 34.7262C6.42877 34.5006 6.09272 34.1717 5.85858 33.7732C5.62444 33.3747 5.50067 32.921 5.5 32.4589V3.5412C5.50067 3.07901 5.62444 2.62534 5.85858 2.22685C6.09272 1.82835 6.42877 1.49941 6.83219 1.27385C7.23948 1.04474 7.70055 0.928504 8.16778 0.937157C8.63502 0.945809 9.09147 1.07903 9.49 1.32307L33.1281 15.7835C33.5095 16.014 33.8248 16.3393 34.0433 16.7277C34.2618 17.1161 34.3761 17.5544 34.375 18Z" fill="white"/>
</svg>
