<svg width="37" height="37" viewBox="0 0 37 37" fill="none" xmlns="http://www.w3.org/2000/svg">
<path d="M34.375 18.5008C34.3761 18.9465 34.2618 19.3848 34.0433 19.7732C33.8248 20.1616 33.5095 20.4868 33.1281 20.7173L9.49 35.1778C9.09147 35.4218 8.63502 35.555 8.16778 35.5637C7.70055 35.5723 7.23948 35.4561 6.83219 35.227C6.42877 35.0014 6.09272 34.6725 5.85858 34.274C5.62444 33.8755 5.50067 33.4218 5.5 32.9597V4.04199C5.50067 3.5798 5.62444 3.12613 5.85858 2.72764C6.09272 2.32914 6.42877 2.0002 6.83219 1.77464C7.23948 1.54553 7.70055 1.4293 8.16778 1.43795C8.63502 1.4466 9.09147 1.57982 9.49 1.82386L33.1281 16.2843C33.5095 16.5148 33.8248 16.8401 34.0433 17.2285C34.2618 17.6169 34.3761 18.0552 34.375 18.5008Z" fill="#0000FF"/>
</svg>
