<svg width="137" height="19" viewBox="0 0 137 19" fill="none" xmlns="http://www.w3.org/2000/svg">
<path d="M10.6773 4.368H3.95731V8.352H10.4853V11.52H3.95731V18H0.645312V1.2H10.6773V4.368ZM19.3546 18.336C15.6826 18.336 12.9466 16.128 12.9466 12.504V1.2H16.2346V12.24C16.2346 13.872 17.0986 15.096 19.3546 15.096C21.6106 15.096 22.4746 13.872 22.4746 12.24V1.2H25.7866V12.504C25.7866 16.128 23.0506 18.336 19.3546 18.336ZM38.0103 1.2H41.3223V18H38.8023L31.6023 7.728V18H28.2903V1.2H30.8103L38.0103 11.448V1.2ZM48.7587 1.2H52.0707V18H48.7587V1.2ZM60.1788 18.336C56.7468 18.336 54.4908 16.68 53.5788 14.184L56.4108 12.528C57.0108 14.088 58.1868 15.096 60.2748 15.096C62.2668 15.096 62.9628 14.256 62.9628 13.32C62.9628 12.072 61.8348 11.592 59.3388 10.872C56.7708 10.128 54.2748 9.048 54.2748 5.856C54.2748 2.688 56.9148 0.863999 59.7948 0.863999C62.5548 0.863999 64.6668 2.28 65.7948 4.632L63.0108 6.24C62.4108 4.968 61.4988 4.08 59.7948 4.08C58.4028 4.08 57.5868 4.8 57.5868 5.76C57.5868 6.792 58.2348 7.344 60.7788 8.112C63.4428 8.952 66.2748 9.84 66.2748 13.272C66.2748 16.416 63.7548 18.336 60.1788 18.336ZM80.723 18.336C75.635 18.336 71.987 14.496 71.987 9.6C71.987 4.68 75.635 0.863999 80.723 0.863999C83.795 0.863999 86.507 2.424 87.947 4.824L85.091 6.48C84.275 4.992 82.643 4.08 80.723 4.08C77.435 4.08 75.275 6.36 75.275 9.6C75.275 12.816 77.435 15.096 80.723 15.096C82.643 15.096 84.299 14.184 85.091 12.72L87.947 14.376C86.531 16.776 83.819 18.336 80.723 18.336ZM97.2815 18.336C92.4335 18.336 88.5695 14.496 88.5695 9.6C88.5695 4.68 92.4335 0.863999 97.2815 0.863999C102.129 0.863999 106.017 4.68 106.017 9.6C106.017 14.496 102.129 18.336 97.2815 18.336ZM97.2815 15.096C100.329 15.096 102.705 12.816 102.705 9.6C102.705 6.36 100.329 4.08 97.2815 4.08C94.2335 4.08 91.8575 6.36 91.8575 9.6C91.8575 12.816 94.2335 15.096 97.2815 15.096ZM116.289 18.336C111.441 18.336 107.577 14.496 107.577 9.6C107.577 4.68 111.441 0.863999 116.289 0.863999C121.137 0.863999 125.025 4.68 125.025 9.6C125.025 14.496 121.137 18.336 116.289 18.336ZM116.289 15.096C119.337 15.096 121.713 12.816 121.713 9.6C121.713 6.36 119.337 4.08 116.289 4.08C113.241 4.08 110.865 6.36 110.865 9.6C110.865 12.816 113.241 15.096 116.289 15.096ZM130.185 14.832H136.593V18H126.873V1.2H130.185V14.832Z" fill="#0000FF"/>
</svg>
