<svg width="45" height="8" viewBox="0 0 45 8" fill="none" xmlns="http://www.w3.org/2000/svg">
<path d="M1.74977 6.10485C1.45486 6.10485 1.12064 6.04587 0.937141 6.04587C0.760199 6.04587 0.62913 6.08519 0.550489 6.08519C0.511168 6.08519 0.484954 6.06553 0.484954 5.99345C0.491508 5.57403 0.301458 4.82694 0.275244 4.20436C0.275244 4.17159 0.294905 4.14538 0.321118 4.14538C0.353886 4.14538 0.380099 4.16504 0.393206 4.21091C0.688111 5.49539 0.969908 5.98034 1.88084 5.98034C2.45098 5.98034 2.64759 5.47573 2.64759 5.09563C2.64759 4.44028 2.08399 3.99465 1.54661 3.58834C0.891267 3.09027 0.340779 2.65775 0.340779 1.94342C0.340779 1.12424 0.904374 0.652396 1.64491 0.652396C2.03812 0.652396 2.25438 0.711377 2.45754 0.711377C2.60171 0.711377 2.72623 0.672057 2.79832 0.672057C2.84419 0.672057 2.8704 0.685164 2.8704 0.770358C2.8704 1.24876 2.9556 1.94998 2.98181 2.29731C2.98837 2.3694 2.97526 2.40872 2.94249 2.40872C2.90317 2.40872 2.88351 2.37595 2.8704 2.31042C2.66069 1.15046 2.41822 0.776912 1.58593 0.776912C1.08132 0.776912 0.845393 1.16356 0.845393 1.58298C0.845393 2.12037 1.32379 2.50702 1.93326 2.96576C2.61482 3.47037 3.1522 3.92256 3.1522 4.72863C3.1522 5.55437 2.59516 6.10485 1.74977 6.10485ZM4.63328 6.10485C3.93861 6.10485 3.68303 5.79684 3.68303 4.87936V2.82814C3.68303 2.72328 3.61094 2.65119 3.50609 2.65119H3.17842C3.10633 2.65119 3.08011 2.63809 3.08011 2.59877C3.08011 2.55945 3.10633 2.53979 3.17842 2.53979C3.70269 2.53979 4.11556 2.25799 4.16798 1.59609C4.18109 1.51745 4.1942 1.49124 4.24007 1.49124C4.29905 1.49124 4.30561 1.5109 4.30561 1.59609V2.23833C4.30561 2.49391 4.40391 2.54634 5.17066 2.54634C5.85877 2.54634 6.28474 2.40216 6.55344 2.40216C6.62552 2.40216 6.66484 2.44804 6.66484 2.54634C6.66484 3.01819 6.61897 3.66698 6.61897 4.24368V5.25291C6.61897 5.8165 6.868 5.92136 7.22844 5.92136C7.29397 5.92136 7.31363 5.93447 7.31363 5.97379C7.31363 6.01311 7.29397 6.03277 7.22189 6.03277C7.01218 6.03277 6.69761 6 6.48135 6H6.23232C5.50489 6 5.02648 6.10485 4.63328 6.10485ZM4.31871 4.93834C4.31871 5.79684 4.65949 5.91481 5.2493 5.91481C5.74081 5.91481 5.97018 5.80995 5.98329 5.25291V3.16892C5.98329 2.7495 5.83256 2.65119 5.47867 2.65119H4.49566C4.3908 2.65119 4.31871 2.72328 4.31871 2.82814V4.93834ZM5.85222 1.36672C5.85222 1.13735 6.0095 0.980068 6.25198 0.980068C6.4879 0.980068 6.65174 1.13735 6.65174 1.36672C6.65174 1.58298 6.4879 1.74027 6.25198 1.74027C6.0095 1.74027 5.85222 1.58298 5.85222 1.36672ZM8.51322 5.25291C8.51322 5.8165 8.74914 5.92136 9.09648 5.92136C9.16201 5.92136 9.18167 5.93447 9.18167 5.97379C9.18167 6.01311 9.16201 6.03277 9.09648 6.03277C8.88677 6.03277 8.58531 6 8.3756 6H8.01516C7.79234 6 7.51054 6.03277 7.24841 6.03277C7.18287 6.03277 7.15666 6.01966 7.15666 5.97379C7.15666 5.93447 7.18287 5.92136 7.24841 5.92136C7.66127 5.92136 7.87098 5.8165 7.87754 5.25291V1.38638C7.87754 0.986622 7.77924 0.953855 7.66783 0.953855C7.49744 0.953855 7.31394 0.986622 7.24185 0.993175C7.18287 0.999729 7.16321 0.986622 7.16321 0.947301C7.16321 0.914534 7.18943 0.894874 7.25496 0.881767C7.64161 0.816233 8.25108 0.560648 8.44769 0.560648C8.52633 0.560648 8.55909 0.606523 8.55909 0.67861C8.55909 1.28808 8.51322 1.9893 8.51322 2.87401V5.25291ZM10.3948 5.25291C10.3948 5.8165 10.6307 5.92136 10.978 5.92136C11.0436 5.92136 11.0632 5.93447 11.0632 5.97379C11.0632 6.01311 11.0436 6.03277 10.978 6.03277C10.7683 6.03277 10.4669 6 10.2572 6H9.89671C9.67389 6 9.3921 6.03277 9.12996 6.03277C9.06443 6.03277 9.03821 6.01966 9.03821 5.97379C9.03821 5.93447 9.06443 5.92136 9.12996 5.92136C9.54283 5.92136 9.75254 5.8165 9.75909 5.25291V1.38638C9.75909 0.986622 9.66079 0.953855 9.54938 0.953855C9.37899 0.953855 9.19549 0.986622 9.12341 0.993175C9.06443 0.999729 9.04476 0.986622 9.04476 0.947301C9.04476 0.914534 9.07098 0.894874 9.13651 0.881767C9.52317 0.816233 10.1326 0.560648 10.3292 0.560648C10.4079 0.560648 10.4406 0.606523 10.4406 0.67861C10.4406 1.28808 10.3948 1.9893 10.3948 2.87401V5.25291ZM11.8176 6C11.5817 6 11.2933 6.03277 11.0246 6.03277C10.9525 6.03277 10.9263 6.01966 10.9263 5.97379C10.9263 5.93447 10.9525 5.92136 11.0181 5.92136C11.4506 5.92136 11.6669 5.8165 11.6669 5.25291L11.6734 3.23445C11.6734 2.83469 11.5751 2.80192 11.4637 2.80192C11.2933 2.80192 11.1033 2.83469 11.0377 2.8478C10.9787 2.8478 10.9591 2.83469 10.9591 2.79537C10.9591 2.7626 10.9853 2.7495 11.0508 2.73639C11.4375 2.67085 12.047 2.40872 12.2436 2.40872H12.2501C12.3353 2.40872 12.355 2.47425 12.355 2.52668C12.355 2.61187 12.3353 2.74294 12.3222 2.87401C12.3156 3.0444 12.3812 3.07061 12.486 2.93955C12.7809 2.60532 13.089 2.40872 13.4035 2.40872C13.8688 2.40872 14.1178 2.74294 14.1178 3.35897V5.25291C14.1178 5.8165 14.3865 5.92136 14.7666 5.92136C14.8387 5.92136 14.8584 5.93447 14.8584 5.97379C14.8584 6.01311 14.8387 6.03277 14.7666 6.03277C14.5373 6.03277 14.203 6 13.9737 6H13.6263C13.3839 6 13.1938 6.01311 12.9972 6.01966H12.9644C12.9448 6.01966 12.9317 6.01966 12.912 6.01966H12.8661C12.8596 6.01966 12.853 6.01966 12.8399 6.01966C12.6106 6.01311 12.4139 6 12.1649 6H11.8176ZM12.3025 5.17427C12.3025 5.66577 12.4139 5.91481 12.912 5.92791C13.3773 5.91481 13.4887 5.67233 13.4887 5.17427V3.35897C13.4887 2.99197 13.3511 2.82158 13.0693 2.82158C12.7351 2.82158 12.3025 3.02474 12.3025 3.47037V5.17427ZM15.8069 6.10485C15.0926 6.10485 14.6273 5.40364 14.6273 4.36164C14.6273 3.28688 15.145 2.40872 15.9642 2.40872C16.5736 2.40872 16.9865 2.89367 16.9865 3.43105C16.9865 3.79805 16.9079 3.91601 16.436 3.91601H15.5251C15.3613 3.91601 15.2498 4.02742 15.2433 4.17814V4.31577C15.2433 5.01698 15.5579 5.61335 16.1018 5.61335C16.7113 5.61335 16.7375 4.92524 17.1962 4.92524C17.7664 4.92524 17.7664 5.96723 18.52 5.96723C18.8215 5.96723 18.9722 5.77063 18.9722 5.51505C18.9722 5.10873 18.7101 4.87936 18.1006 4.38785C17.5435 3.94222 17.3601 3.68008 17.3601 3.30654C17.3601 2.7626 17.7664 2.40872 18.2579 2.40872C18.5986 2.40872 18.7363 2.49391 18.9656 2.49391C19.0836 2.49391 19.1098 2.44148 19.1819 2.44148C19.2212 2.44148 19.254 2.46114 19.254 2.52013C19.2474 3.17547 19.313 3.49659 19.3195 3.69319C19.3195 3.75873 19.2999 3.77839 19.2737 3.77839C19.2474 3.77839 19.2343 3.75873 19.2212 3.69974C19.0836 2.93955 18.638 2.54634 18.2251 2.54634C18.0416 2.54634 17.8057 2.7495 17.8057 3.01163C17.8057 3.31309 18.0744 3.53591 18.5331 3.88979C19.1164 4.36164 19.3916 4.64999 19.3916 5.14805C19.3982 5.79684 18.9591 6.10485 18.4545 6.10485C17.5698 6.10485 17.4977 5.34466 16.9603 5.34466C16.5474 5.34466 16.6195 6.10485 15.8069 6.10485ZM15.2826 3.55557C15.2695 3.71285 15.3678 3.83081 15.5251 3.83081H15.9707C16.2787 3.83081 16.3508 3.66042 16.3508 3.41139C16.3508 2.95265 16.2132 2.54634 15.879 2.54634C15.5382 2.57911 15.3481 2.89367 15.2826 3.55557ZM20.867 6.10485C20.5262 6.10485 20.3231 6.03277 20.133 6.03277C20.0151 6.03277 19.9168 6.07209 19.8447 6.07209C19.8054 6.07209 19.7791 6.05243 19.7791 5.99345C19.7791 5.39053 19.6415 4.80072 19.6219 4.64999C19.6087 4.59756 19.6284 4.57135 19.6612 4.57135C19.6939 4.57135 19.707 4.59101 19.7202 4.64344C19.9299 5.37742 20.1199 5.96723 20.9063 5.96723C21.234 5.96723 21.3847 5.77063 21.3847 5.51505C21.3847 5.14805 21.1226 4.87936 20.5197 4.38785C19.9561 3.94222 19.7726 3.68008 19.7726 3.30654C19.7726 2.7626 20.1789 2.40872 20.6704 2.40872C20.9391 2.40872 21.0898 2.47425 21.293 2.47425C21.4372 2.47425 21.5224 2.43493 21.5944 2.43493C21.6338 2.43493 21.6665 2.45459 21.6665 2.51357C21.66 3.16892 21.7255 3.49659 21.7321 3.69319C21.7321 3.75873 21.7124 3.77839 21.6862 3.77839C21.66 3.77839 21.6469 3.75873 21.6338 3.69974C21.4896 2.90022 21.1357 2.54634 20.6376 2.54634C20.3755 2.54634 20.2182 2.7495 20.2182 3.01163C20.2182 3.31309 20.4869 3.53591 20.9456 3.88979C21.5355 4.36164 21.8041 4.64999 21.8041 5.14805C21.8041 5.79684 21.3716 6.10485 20.867 6.10485ZM24.1973 5.25291C24.1973 5.8165 24.4463 5.92136 24.8133 5.92136C24.8723 5.92136 24.8985 5.93447 24.8985 5.97379C24.8985 6.01311 24.8723 6.03277 24.8067 6.03277C24.5905 6.03277 24.2825 6 24.0597 6H23.7123C23.4764 6 23.1881 6.03277 22.9194 6.03277C22.8473 6.03277 22.8211 6.01966 22.8211 5.97379C22.8211 5.93447 22.8473 5.92136 22.9128 5.92136C23.3453 5.92136 23.5616 5.8165 23.5616 5.25291L23.5682 3.2279C23.5682 2.82814 23.4698 2.79537 23.3584 2.79537C23.1881 2.79537 22.998 2.83469 22.9325 2.84124C22.8735 2.8478 22.8538 2.83469 22.8538 2.78882C22.8538 2.75605 22.88 2.74294 22.9456 2.72984C23.3322 2.6643 23.9417 2.40216 24.1383 2.40216C24.2038 2.40216 24.2497 2.44804 24.2497 2.54634C24.2497 3.01819 24.1973 3.66698 24.1973 4.24368V5.25291ZM23.3912 1.36672C23.3912 1.12424 23.555 0.966962 23.7975 0.966962C24.0466 0.966962 24.2169 1.12424 24.2169 1.36672C24.2169 1.59609 24.0466 1.75337 23.7975 1.75337C23.555 1.75337 23.3912 1.59609 23.3912 1.36672ZM26.1105 6.10485C25.7697 6.10485 25.5666 6.03277 25.3765 6.03277C25.2586 6.03277 25.1603 6.07209 25.0882 6.07209C25.0489 6.07209 25.0227 6.05243 25.0227 5.99345C25.0227 5.39053 24.885 4.80072 24.8654 4.64999C24.8523 4.59756 24.8719 4.57135 24.9047 4.57135C24.9375 4.57135 24.9506 4.59101 24.9637 4.64344C25.1734 5.37742 25.3634 5.96723 26.1498 5.96723C26.4775 5.96723 26.6282 5.77063 26.6282 5.51505C26.6282 5.14805 26.3661 4.87936 25.7632 4.38785C25.1996 3.94222 25.0161 3.68008 25.0161 3.30654C25.0161 2.7626 25.4224 2.40872 25.9139 2.40872C26.1826 2.40872 26.3333 2.47425 26.5365 2.47425C26.6807 2.47425 26.7659 2.43493 26.838 2.43493C26.8773 2.43493 26.91 2.45459 26.91 2.51357C26.9035 3.16892 26.969 3.49659 26.9756 3.69319C26.9756 3.75873 26.9559 3.77839 26.9297 3.77839C26.9035 3.77839 26.8904 3.75873 26.8773 3.69974C26.7331 2.90022 26.3792 2.54634 25.8812 2.54634C25.619 2.54634 25.4617 2.7495 25.4617 3.01163C25.4617 3.31309 25.7304 3.53591 26.1892 3.88979C26.779 4.36164 27.0477 4.64999 27.0477 5.14805C27.0477 5.79684 26.6151 6.10485 26.1105 6.10485ZM28.8444 6.10485C28.3988 6.10485 28.117 5.78374 28.117 5.33155C28.117 4.67621 28.8313 4.28955 29.5457 3.97499C29.7029 3.9029 29.8143 3.73906 29.8143 3.56868V3.46382C29.8143 2.7495 29.5915 2.54634 29.2835 2.54634C29.0148 2.54634 28.8706 2.68396 28.8706 2.9461C28.8706 3.1427 28.9689 3.26066 28.9689 3.47037C28.9689 3.65387 28.851 3.78494 28.6413 3.78494C28.4054 3.78494 28.2677 3.58178 28.2677 3.33931C28.2677 2.81503 28.7527 2.40216 29.4146 2.40216C30.0503 2.40216 30.4762 2.73639 30.4762 3.47037C30.4762 4.11261 30.4435 4.7614 30.4435 5.40364C30.4435 5.68544 30.5418 5.76408 30.6597 5.76408C30.7646 5.76408 30.9415 5.63301 31.066 5.1415C31.0726 5.08907 31.0857 5.07597 31.1119 5.07597C31.1447 5.07597 31.1578 5.09563 31.1447 5.14805C31.0136 5.79684 30.7974 6.10485 30.3517 6.10485C30.0044 6.10485 29.6898 5.84272 29.8078 5.35121C29.834 5.23325 29.7291 5.22669 29.6767 5.33155C29.4146 5.9017 29.2442 6.10485 28.8444 6.10485ZM28.7461 5.09563C28.7461 5.39053 28.8706 5.60024 29.1393 5.60024C29.4867 5.60024 29.8143 5.17427 29.8143 4.59756V4.22402C29.8143 4.05363 29.7029 3.9881 29.5522 4.05363C29.0279 4.32232 28.7461 4.67621 28.7461 5.09563ZM33.6532 6.10485C33.3583 6.10485 33.0241 6.04587 32.8406 6.04587C32.6637 6.04587 32.5326 6.08519 32.4539 6.08519C32.4146 6.08519 32.3884 6.06553 32.3884 5.99345C32.395 5.57403 32.2049 4.82694 32.1787 4.20436C32.1787 4.17159 32.1984 4.14538 32.2246 4.14538C32.2573 4.14538 32.2836 4.16504 32.2967 4.21091C32.5916 5.49539 32.8734 5.98034 33.7843 5.98034C34.3544 5.98034 34.551 5.47573 34.551 5.09563C34.551 4.44028 33.9874 3.99465 33.4501 3.58834C32.7947 3.09027 32.2442 2.65775 32.2442 1.94342C32.2442 1.12424 32.8078 0.652396 33.5484 0.652396C33.9416 0.652396 34.1578 0.711377 34.361 0.711377C34.5052 0.711377 34.6297 0.672057 34.7018 0.672057C34.7476 0.672057 34.7739 0.685164 34.7739 0.770358C34.7739 1.24876 34.8591 1.94998 34.8853 2.29731C34.8918 2.3694 34.8787 2.40872 34.8459 2.40872C34.8066 2.40872 34.787 2.37595 34.7739 2.31042C34.5641 1.15046 34.3217 0.776912 33.4894 0.776912C32.9848 0.776912 32.7488 1.16356 32.7488 1.58298C32.7488 2.12037 33.2272 2.50702 33.8367 2.96576C34.5183 3.47037 35.0557 3.92256 35.0557 4.72863C35.0557 5.55437 34.4986 6.10485 33.6532 6.10485ZM37.2314 4.55169C37.238 4.49926 37.2511 4.4796 37.2838 4.4796C37.31 4.4796 37.3231 4.49926 37.3231 4.55169C37.2314 5.58713 36.9496 6.10485 36.3729 6.10485C35.8814 6.10485 35.5865 5.79684 35.5865 4.87936V2.82814C35.5865 2.72328 35.5144 2.65119 35.4095 2.65119H35.0819C35.0098 2.65119 34.9836 2.63809 34.9836 2.59877C34.9836 2.55945 35.0098 2.53979 35.0819 2.53979C35.6061 2.53979 36.019 2.25799 36.0714 1.59609C36.0845 1.51745 36.0977 1.49124 36.1435 1.49124C36.2025 1.49124 36.2091 1.5109 36.2091 1.59609V2.16624C36.2091 2.47425 36.3336 2.52668 36.7464 2.52668H37.8736C38.2472 2.52668 38.5224 2.50702 38.8435 2.50702H38.8501H38.8566C39.1843 2.50702 39.4465 2.52013 39.7545 2.52668C39.9118 2.52013 40.1018 2.49391 40.2787 2.49391C40.3312 2.49391 40.3443 2.50702 40.3443 2.55289C40.3443 2.59221 40.3312 2.60532 40.2853 2.60532C39.9773 2.60532 39.761 2.70362 39.5906 3.23445L38.719 5.96068C38.4372 6.85195 38.1096 7.52695 37.7557 7.52695C37.5001 7.52695 37.3428 7.35001 37.3428 7.17962C37.3428 7.07476 37.4018 6.97646 37.5132 6.93059C37.8212 6.80607 38.4962 6.51117 38.5421 6.23592C38.5814 6.05898 38.4962 5.83616 38.352 5.46262L37.618 3.2279C37.4804 2.84124 37.2445 2.61843 36.8185 2.61843C36.4974 2.61843 36.2222 2.62498 36.2222 2.98542V4.70897C36.2222 5.31844 36.3401 5.68544 36.6612 5.68544C36.9037 5.68544 37.1462 5.3381 37.2314 4.55169ZM38.3062 3.31309L38.8239 4.89247C38.8763 5.05631 38.9484 5.05631 38.9943 4.89247L39.4661 3.31964C39.6103 2.82814 39.5579 2.59877 38.8566 2.59877H38.8501H38.8435C38.2013 2.59877 38.1489 2.81503 38.3062 3.31309ZM41.3382 5.25291C41.3382 5.8165 41.5742 5.92136 41.9215 5.92136C41.987 5.92136 42.0067 5.93447 42.0067 5.97379C42.0067 6.01311 41.987 6.03277 41.9215 6.03277C41.7118 6.03277 41.4103 6 41.2006 6H40.8402C40.6174 6 40.3356 6.03277 40.0734 6.03277C40.0079 6.03277 39.9817 6.01966 39.9817 5.97379C39.9817 5.93447 40.0079 5.92136 40.0734 5.92136C40.4863 5.92136 40.696 5.8165 40.7026 5.25291V1.38638C40.7026 0.986622 40.6043 0.953855 40.4929 0.953855C40.3225 0.953855 40.139 0.986622 40.0669 0.993175C40.0079 0.999729 39.9882 0.986622 39.9882 0.947301C39.9882 0.914534 40.0145 0.894874 40.08 0.881767C40.4666 0.816233 41.0761 0.560648 41.2727 0.560648C41.3514 0.560648 41.3841 0.606523 41.3841 0.67861C41.3841 1.28808 41.3382 1.9893 41.3382 2.87401V5.25291ZM43.1558 6.10485C42.4153 6.10485 41.95 5.48228 41.95 4.36164C41.95 3.28688 42.4677 2.40872 43.2869 2.40872C43.8963 2.40872 44.3092 2.89367 44.3092 3.43105C44.3092 3.79805 44.2306 3.91601 43.7587 3.91601H42.8478C42.684 3.91601 42.5726 4.02742 42.566 4.17814V4.31577C42.566 5.07597 42.8806 5.61335 43.4245 5.61335C43.7194 5.61335 44.1126 5.4364 44.3485 4.62378C44.3747 4.55824 44.3879 4.54514 44.4141 4.54514C44.4534 4.54514 44.4534 4.57135 44.4403 4.63689C44.2044 5.65922 43.7718 6.10485 43.1558 6.10485ZM42.5922 3.55557C42.5857 3.71285 42.6905 3.83081 42.8478 3.83081H43.2934C43.5949 3.83081 43.6735 3.68664 43.6735 3.41139C43.6735 2.95265 43.5359 2.54634 43.2017 2.54634C42.8871 2.54634 42.6577 2.9461 42.5922 3.55557Z" fill="white"/>
</svg>
