<svg width="27" height="27" viewBox="0 0 27 27" fill="none" xmlns="http://www.w3.org/2000/svg">
<path fill-rule="evenodd" clip-rule="evenodd" d="M13.5 0L13.8562 5.34247L14.6766 0.0513725L14.5658 5.40459L15.8443 0.205095L15.2673 5.52822L16.9941 0.459998L15.9554 5.71262L18.1173 0.814149L16.6247 5.95625L19.2054 1.26484L17.2703 6.25731L20.25 1.80866L17.8872 6.61347L21.2433 2.44145L18.4707 7.02204L22.1776 3.1584L19.0164 7.4799L23.046 3.95406L19.5201 7.98362L23.8416 4.82237L19.978 8.52929L24.5586 5.75672L20.3866 9.11278L25.1914 6.75L20.7427 9.72969L25.7352 7.79465L21.0438 10.3753L26.1859 8.88273L21.2874 11.0447L26.54 10.0059L21.4717 11.7327L26.7949 11.1558L21.5954 12.4342L26.9486 12.3234L21.6576 13.1438L27 13.5L21.6575 13.8562L26.9486 14.6766L21.5955 14.5658L26.7949 15.8443L21.4718 15.2673L26.54 16.9941L21.2874 15.9553L26.1859 18.1173L21.0438 16.6247L25.7352 19.2053L20.7427 17.2703L25.1914 20.25L20.3865 17.8872L24.5586 21.2433L19.978 18.4707L23.8416 22.1776L19.5201 19.0164L23.0459 23.0459L19.0164 19.5201L22.1776 23.8416L18.4707 19.978L21.2433 24.5586L17.8872 20.3865L20.25 25.1913L17.2703 20.7427L19.2054 25.7352L16.6247 21.0438L18.1173 26.1859L15.9554 21.2874L16.9941 26.54L15.2673 21.4717L15.8443 26.7949L14.5658 21.5954L14.6766 26.9486L13.8562 21.6575L13.5 27L13.1438 21.6575L12.3234 26.9486L12.4342 21.5955L11.1558 26.7949L11.7327 21.4717L10.0059 26.54L11.0447 21.2874L8.88273 26.1859L10.3753 21.0437L7.79466 25.7352L9.72969 20.7427L6.75 25.1913L9.11279 20.3865L5.75672 24.5586L8.52928 19.978L4.82237 23.8416L7.98362 19.5201L3.95406 23.0459L7.4799 19.0164L3.1584 22.1776L7.02204 18.4707L2.44145 21.2433L6.61349 17.8872L1.80866 20.25L6.25729 17.2703L1.26484 19.2053L5.95624 16.6247L0.814148 18.1173L5.71262 15.9554L0.460002 16.9941L5.52823 15.2673L0.205092 15.8443L5.40457 14.5658L0.05137 14.6766L5.3425 13.8562L0 13.5L5.34246 13.1438L0.051369 12.3234L5.40457 12.4342L0.205097 11.1557L5.52827 11.7327L0.460001 10.0059L5.7126 11.0446L0.814147 8.88273L5.95626 10.3753L1.26485 7.79465L6.25729 9.72968L1.80866 6.75L6.61345 9.11279L2.44145 5.75672L7.02205 8.52929L3.1584 4.82237L7.47992 7.98361L3.95406 3.95406L7.9836 7.47991L4.82237 3.15841L8.5293 7.02205L5.75672 2.44145L9.11279 6.61345L6.75 1.80865L9.72968 6.25727L7.79465 1.26485L10.3753 5.95626L8.88273 0.814152L11.0447 5.71264L10.0059 0.460003L11.7327 5.52826L11.1558 0.205099L12.4342 5.40456L12.3234 0.0513768L13.1438 5.34248L13.5 0Z" fill="#0000FF"/>
</svg>
