<svg width="36" height="37" viewBox="0 0 36 37" fill="none" xmlns="http://www.w3.org/2000/svg">
<path d="M32.4375 5.375V31.625C32.4375 32.3212 32.1609 32.9889 31.6687 33.4812C31.1764 33.9734 30.5087 34.25 29.8125 34.25H23.25C22.5538 34.25 21.8861 33.9734 21.3938 33.4812C20.9016 32.9889 20.625 32.3212 20.625 31.625V5.375C20.625 4.67881 20.9016 4.01113 21.3938 3.51884C21.8861 3.02656 22.5538 2.75 23.25 2.75H29.8125C30.5087 2.75 31.1764 3.02656 31.6687 3.51884C32.1609 4.01113 32.4375 4.67881 32.4375 5.375ZM12.75 2.75H6.1875C5.49131 2.75 4.82363 3.02656 4.33134 3.51884C3.83906 4.01113 3.5625 4.67881 3.5625 5.375V31.625C3.5625 32.3212 3.83906 32.9889 4.33134 33.4812C4.82363 33.9734 5.49131 34.25 6.1875 34.25H12.75C13.4462 34.25 14.1139 33.9734 14.6062 33.4812C15.0984 32.9889 15.375 32.3212 15.375 31.625V5.375C15.375 4.67881 15.0984 4.01113 14.6062 3.51884C14.1139 3.02656 13.4462 2.75 12.75 2.75Z" fill="#0000FF"/>
</svg>
