<svg width="385" height="179" viewBox="0 0 385 179" fill="none" xmlns="http://www.w3.org/2000/svg">
<path d="M385 0V176.938H342.204V0H385Z" fill="#0000FF"/>
<path d="M322.658 176.938H279.863L208.287 68.3225V176.938H165.491V0H208.287L279.863 109.616V0H322.658V176.938Z" fill="#0000FF"/>
<path d="M42.5451 0V102.108C42.5451 113.787 45.1312 122.714 50.3034 128.887C55.6424 135.06 63.3172 138.147 73.3278 138.147C83.3384 138.147 90.9298 135.06 96.102 128.887C101.441 122.714 104.11 113.787 104.11 102.108V0H146.906V102.108C146.906 118.793 143.652 132.891 137.146 144.403C130.639 155.749 121.712 164.341 110.367 170.181C99.1886 175.853 86.5085 178.69 72.3268 178.69C58.145 178.69 45.6318 175.853 34.7869 170.181C23.9421 164.508 15.433 155.915 9.25983 144.403C3.08661 132.891 0 118.793 0 102.108V0H42.5451Z" fill="#0000FF"/>
</svg>
